# xmcd
#
# Track frame offsets: 
#        150
#        8365
#        17887
#        29862
#        41437
#        51677
#        63935
#        73197
#        86575
#        97277
#        109802
#        118702
#        128337
#        140910
#        148430
#        159475
#        172155
#        181737
#        190517
#        201727
#        213687
#        225650
#        236567
#        245425
#        255780
#        265935
#        277925
#        289925
#        298047
#        308127
#
# Disc length: 4247 seconds
#
# Revision: 1
# Processed by: cddbd v1.5.2PL0 Copyright (c) Steve Scherf et al.
# Submitted via: ExactAudioCopy v0.95b4
#
DISCID=d110951e
DTITLE=Hank Penny - Crazy Rhythm: The Standard Transcriptions
DYEAR=2000
DGENRE=Western Swing
TTITLE0=Kiss Me Honey (But Take Your Time)
TTITLE1=Wang Wang Blues
TTITLE2=Rabbits Don't Ever Get Married
TTITLE3=The Penny Opus No. 1
TTITLE4=Hold the Phone
TTITLE5=No Fuss, No Muss, No Bother
TTITLE6=Won't You Ride in My Little Red Wagon
TTITLE7=Progressive County Music for a Hollywood Flapper
TTITLE8=Don't Start Breathing Down My Neck
TTITLE9=Mister and Mississippi
TTITLE10=I'm Waiting Just for You
TTITLE11=I Like the Wide Open Spaces
TTITLE12=Flamin' Mamie
TTITLE13=Cross Your Heart
TTITLE14=I'm Not in Love (Just Involved)
TTITLE15=Taxes, Taxes
TTITLE16=Peroxide Blond
TTITLE17=Ship of Broken Dreams
TTITLE18=Things Are Gettin' Rough All Over
TTITLE19=Big-Footed Sam
TTITLE20=That Mink on Her Back
TTITLE21=Catch 'Em Young, Treat 'Em Rough, and Tell 'Em Nothin'
TTITLE22=Crazy Rhythm
TTITLE23=White Shotguns
TTITLE24=You're Bound to Look like a Monkey
TTITLE25=You're So Different
TTITLE26=We Met Too Late
TTITLE27=Alabama Jubilee
TTITLE28=I Want My Rib
TTITLE29=September Song
EXTD=Recorded for/by Standard Radio Transcription Services, 1951 - sess
EXTD=ions produced by Harry Bluestone.\nHerbert Clayton "Hank" Penny (
EXTD=1918-08-18/1992-04-17): vocals, bandleader\nMary "Jaye P." Morgan
EXTD=: vocals\nBilly Hill, Billy Wright: fiddles\nBenny Garcia: guitar
EXTD=\nNoel Boggs (1917-11-14/1974-10): steel guitar\nStan Ellison: ac
EXTD=cordion\nJo Ella Wright: piano\nMildred Springer: bass\nWarren Pe
EXTD=nniman: drums\nCD: Soundies/Bloodshot Revival BS-806 (2000-07-18)
EXTD=, UPC 744302080628.
EXTT0=
EXTT1=
EXTT2=
EXTT3=
EXTT4=
EXTT5=
EXTT6=
EXTT7=
EXTT8=
EXTT9=
EXTT10=
EXTT11=
EXTT12=
EXTT13=
EXTT14=
EXTT15=
EXTT16=
EXTT17=
EXTT18=
EXTT19=
EXTT20=
EXTT21=
EXTT22=
EXTT23=
EXTT24=
EXTT25=
EXTT26=
EXTT27=
EXTT28=
EXTT29=
PLAYORDER=
